name D:\school\WTK\thesis\model\3dpredictsim\Results\debug_batch\Pog_s1_tmt_aCst_d05_k800_ig24_act_TTC.mot
datacolumns 128
datarows 4
range 1.26020564 1.29801180
endheader
time	pelvis_tilt	pelvis_list	pelvis_rotation	pelvis_tx	pelvis_ty	pelvis_tz	hip_flexion_l	hip_adduction_l	hip_rotation_l	hip_flexion_r	hip_adduction_r	hip_rotation_r	knee_angle_l	knee_angle_r	ankle_angle_l	ankle_angle_r	subtalar_angle_l	subtalar_angle_r	tmt_angle_l	tmt_angle_r	mtp_angle_l	mtp_angle_r	lumbar_extension	lumbar_bending	lumbar_rotation	arm_flex_l	arm_add_l	arm_rot_l	arm_flex_r	arm_add_r	arm_rot_r	elbow_flex_l	elbow_flex_r	pro_sup_l	pro_sup_r	glut_med1_l/activation	glut_med2_l/activation	glut_med3_l/activation	glut_min1_l/activation	glut_min2_l/activation	glut_min3_l/activation	semimem_l/activation	semiten_l/activation	bifemlh_l/activation	bifemsh_l/activation	sar_l/activation	add_long_l/activation	add_brev_l/activation	add_mag1_l/activation	add_mag2_l/activation	add_mag3_l/activation	tfl_l/activation	pect_l/activation	grac_l/activation	glut_max1_l/activation	glut_max2_l/activation	glut_max3_l/activation	iliacus_l/activation	psoas_l/activation	quad_fem_l/activation	gem_l/activation	peri_l/activation	rect_fem_l/activation	vas_med_l/activation	vas_int_l/activation	vas_lat_l/activation	med_gas_l/activation	lat_gas_l/activation	soleus_l/activation	tib_post_l/activation	flex_dig_l/activation	flex_hal_l/activation	tib_ant_l/activation	per_brev_l/activation	per_long_l/activation	per_tert_l/activation	ext_dig_l/activation	ext_hal_l/activation	ercspn_l/activation	intobl_l/activation	extobl_l/activation	glut_med1_r/activation	glut_med2_r/activation	glut_med3_r/activation	glut_min1_r/activation	glut_min2_r/activation	glut_min3_r/activation	semimem_r/activation	semiten_r/activation	bifemlh_r/activation	bifemsh_r/activation	sar_r/activation	add_long_r/activation	add_brev_r/activation	add_mag1_r/activation	add_mag2_r/activation	add_mag3_r/activation	tfl_r/activation	pect_r/activation	grac_r/activation	glut_max1_r/activation	glut_max2_r/activation	glut_max3_r/activation	iliacus_r/activation	psoas_r/activation	quad_fem_r/activation	gem_r/activation	peri_r/activation	rect_fem_r/activation	vas_med_r/activation	vas_int_r/activation	vas_lat_r/activation	med_gas_r/activation	lat_gas_r/activation	soleus_r/activation	tib_post_r/activation	flex_dig_r/activation	flex_hal_r/activation	tib_ant_r/activation	per_brev_r/activation	per_long_r/activation	per_tert_r/activation	ext_dig_r/activation	ext_hal_r/activation	ercspn_r/activation	intobl_r/activation	extobl_r/activation	
          1.26020564	         -2.92988817	         -1.46935132	          9.00624369	          1.57525704	          0.85389958	         -0.00353795	        -16.70883893	         -3.04361155	          8.15094673	         33.62630574	          0.42071560	         -0.67445250	        -15.33603655	        -15.05073104	         -7.43562836	          9.36562540	         16.69583700	         -0.40876150	          1.71381124	          0.02482460	         28.43396874	         -0.08499953	         -0.40451952	         -1.07145471	         -3.42454043	          2.90719718	        -13.52969286	         17.44682981	        -13.12640565	        -13.55878524	          6.34094780	         49.15563103	         19.34669571	         86.51662706	         86.51662706	          0.14439752	          0.08858487	          0.08043211	          0.19125495	          0.13234955	          0.08276258	          0.05000182	          0.05000016	          0.05000016	          0.05000051	          0.08690658	          0.05000044	          0.05000016	          0.05000018	          0.05000032	          0.05000029	          0.16928233	          0.05000148	          0.05000042	          0.05000436	          0.05000180	          0.05000057	          0.38472775	          0.60450251	          0.05000023	          0.05000104	          0.06919569	          0.23888808	          0.09458215	          0.05000564	          0.07497126	          0.16434880	          0.24342385	          0.06050138	          0.16267860	          0.20643295	          0.21643461	          0.05000003	          0.40829718	          0.34978880	          0.05000009	          0.24098953	          0.05000015	          0.05000000	          0.05000002	          0.05000006	          0.05000044	          0.05000017	          0.05000089	          0.05000017	          0.05000022	          0.05000061	          0.16672427	          0.06050199	          0.12105959	          0.06049032	          0.05000330	          0.06823825	          0.09561611	          0.19968374	          0.15889740	          0.11559908	          0.05000171	          0.06049241	          0.06459394	          0.05000048	          0.06050730	          0.09185220	          0.06050161	          0.06240284	          0.16964863	          0.05000139	          0.05000084	          0.05000015	          0.07562020	          0.08998207	          0.07364329	          0.06050172	          0.06050175	          0.06050171	          0.05000301	          0.05000080	          0.06050168	          0.48638480	          0.31379416	          0.19954902	          0.08432848	          0.55930414	          0.28139709	          0.05000044	          0.14185062	          0.11296363	
          1.27280769	         -2.92856033	         -1.39331663	          9.17303946	          1.59583944	          0.85266398	         -0.00313939	        -16.86520447	         -3.23153914	          7.86890111	         32.88092880	          0.70167459	         -0.47691764	        -16.74014995	        -15.06436279	        -10.36458965	          8.72936972	         16.99619394	         -0.76877000	          1.31656660	          0.04572440	         30.14700191	         -0.08040027	         -0.13110705	         -0.92420682	         -3.53671070	          2.38299022	        -13.60748787	         17.76354445	        -14.64733712	        -13.53467504	          6.23440567	         50.43747306	         19.31578933	         86.51662706	         86.51662706	          0.11933349	          0.07320866	          0.06647135	          0.15805756	          0.10937677	          0.06839706	          0.05000189	          0.05000016	          0.05000022	          0.05000022	          0.07182179	          0.13481733	          0.15518167	          0.11086514	          0.05003716	          0.05000136	          0.13989885	          0.08258307	          0.05000854	          0.05000232	          0.05000172	          0.05000187	          0.31794785	          0.49957481	          0.07320870	          0.07320244	          0.06050199	          0.19742259	          0.07816635	          0.12970296	          0.08593354	          0.13582161	          0.20117105	          0.05000003	          0.13444132	          0.17060094	          0.17886653	          0.23897015	          0.42060213	          0.32591305	          0.48373409	          0.41557719	          0.20762915	          0.05365350	          0.07320908	          0.06050174	          0.07388164	          0.07762319	          0.05000023	          0.06050237	          0.06050141	          0.05000505	          0.13778481	          0.05000031	          0.10004646	          0.05000024	          0.05000147	          0.05639379	          0.07901945	          0.25258812	          0.19207632	          0.12876956	          0.05000041	          0.05000115	          0.05338208	          0.06050165	          0.09145720	          0.10114341	          0.05000033	          0.05157131	          0.42660549	          0.06050264	          0.08362872	          0.07320903	          0.22333407	          0.22672156	          0.19851813	          0.05000001	          0.05000003	          0.05000000	          0.05000008	          0.07320836	          0.05000122	          0.67090972	          0.35201571	          0.23056647	          0.50238939	          0.64577572	          0.44646409	          0.05000000	          0.11722861	          0.09335573	
          1.28540975	         -2.92084860	         -1.31921779	          9.29870885	          1.61660315	          0.85108659	         -0.00276032	        -16.81353339	         -3.37760424	          7.57520866	         32.01089888	          0.96475585	         -0.21340971	        -18.53118255	        -15.69384864	        -13.09439172	          7.96913645	         17.23606845	         -1.14526671	          0.93049799	         -0.04283360	         30.94036572	         -0.15150570	          0.14486207	         -0.75816223	         -3.62916703	          1.79465681	        -13.69567685	         18.00937014	        -16.12558217	        -13.52347341	          6.23177245	         51.69373648	         19.21631472	         86.51662706	         86.51662706	          0.09862006	          0.06050142	          0.05493358	          0.13062250	          0.09039153	          0.05652499	          0.07105401	          0.06050178	          0.06050201	          0.05000027	          0.05935538	          0.16027938	          0.26703426	          0.14377628	          0.07705004	          0.10052149	          0.11561566	          0.06825361	          0.06050190	          0.05968215	          0.06050100	          0.06050209	          0.26275942	          0.43883901	          0.06050181	          0.06049708	          0.05000027	          0.16315455	          0.06459852	          0.10718954	          0.07101748	          0.11224609	          0.16625236	          0.05000000	          0.11110539	          0.14098855	          0.14781942	          0.42495923	          0.48171193	          0.33410343	          0.71944156	          0.53600184	          0.36022992	          0.08043693	          0.06050168	          0.05000011	          0.25616048	          0.27494222	          0.42395672	          0.05000076	          0.05000022	          0.35841290	          0.12308129	          0.08506950	          0.10647667	          0.05000013	          0.05000029	          0.07320945	          0.18689492	          0.25832283	          0.23061304	          0.16578786	          0.05000021	          0.06052290	          0.13162959	          0.05000014	          0.17656140	          0.17265061	          0.05397321	          0.05000040	          0.35255663	          0.05000099	          0.29764520	          0.06050163	          0.18456846	          0.18736798	          0.16406000	          0.06050169	          0.06050169	          0.06050170	          0.06050163	          0.06050132	          0.06050168	          0.56518540	          0.35541201	          0.19054551	          0.44702960	          0.66072398	          0.44284104	          0.05635835	          0.09688045	          0.07715131	
          1.29801180	         -2.90975789	         -1.25282329	          9.37879441	          1.63715329	          0.84926509	         -0.00237846	        -16.49706814	         -3.48606433	          7.28810685	         31.07890313	          1.22028235	          0.07908047	        -20.80133250	        -16.44786105	        -15.22338455	          7.38315186	         17.40409302	         -1.52699667	          0.65585731	         -0.01930954	         29.86277657	         -0.15743085	          0.39108032	         -0.56923452	         -3.70055445	          1.20803350	        -13.78030887	         18.18495369	        -17.46952858	        -13.52954623	          6.39317012	         52.88142661	         18.98545694	         86.51662706	         86.51662706	          0.17154815	          0.05000013	          0.05000004	          0.17892028	          0.07470174	          0.05000040	          0.10966062	          0.05000018	          0.05000036	          0.05000015	          0.05969103	          0.13245879	          0.22068339	          0.11882016	          0.06367619	          0.08307340	          0.09554754	          0.05913881	          0.05000052	          0.05000082	          0.05000061	          0.05000056	          0.21715046	          0.42510070	          0.05000013	          0.05000038	          0.05000024	          0.13483466	          0.08858513	          0.08858512	          0.07224183	          0.09276274	          0.13739477	          0.05000004	          0.09182004	          0.11651621	          0.12216138	          0.35751306	          0.39809792	          0.27611122	          0.63167312	          0.71475762	          0.29770235	          0.12344483	          0.05000000	          0.05000003	          0.32549007	          0.42915346	          0.52431762	          0.13820704	          0.24467632	          0.29620126	          0.10171721	          0.10264687	          0.08799483	          0.07320788	          0.05000051	          0.06050199	          0.15445426	          0.21348415	          0.22894465	          0.18283483	          0.05000015	          0.05001771	          0.10878187	          0.28904053	          0.24861167	          0.21035125	          0.05000003	          0.05000004	          0.29136119	          0.07685547	          0.24598116	          0.05000002	          0.15253233	          0.24191693	          0.18894568	          0.05000000	          0.05000002	          0.05000000	          0.05000000	          0.05000016	          0.05000011	          0.73654430	          0.39725922	          0.19800121	          0.69949496	          0.76610248	          0.55679829	          0.06914714	          0.08006431	          0.06375962	
